<svg width="24" height="24" viewBox="0 0 24 24" fill="none" xmlns="http://www.w3.org/2000/svg">
<g clip-path="url(#clip0_1837_698)">
<path d="M12 23C18.0751 23 23 18.0751 23 12C23 5.92487 18.0751 1 12 1C5.92487 1 1 5.92487 1 12C1 18.0751 5.92487 23 12 23Z" stroke="white" stroke-width="1.5" stroke-linecap="round" stroke-linejoin="round"/>
<path d="M8.79901 8.70001C9.05763 7.96484 9.56808 7.34493 10.24 6.95006C10.9118 6.55518 11.7018 6.41084 12.4699 6.54259C13.238 6.67434 13.9347 7.07369 14.4366 7.66989C14.9385 8.26609 15.2132 9.02068 15.212 9.80001C15.212 12 11.912 13.1 11.912 13.1" stroke="white" stroke-width="1.5" stroke-linecap="round" stroke-linejoin="round"/>
<path d="M12 17.5H12.9565" stroke="white" stroke-width="1.5" stroke-linecap="round" stroke-linejoin="round"/>
</g>
<defs>
<clipPath id="clip0_1837_698">
<rect width="24" height="24" fill="white"/>
</clipPath>
</defs>
</svg>
