<svg width="64" height="64" viewBox="0 0 64 64" fill="none" xmlns="http://www.w3.org/2000/svg">
<path fill-rule="evenodd" clip-rule="evenodd" d="M14 10.667C14 9.56242 14.8954 8.66699 16 8.66699H26.6667C27.7712 8.66699 28.6667 9.56242 28.6667 10.667V53.3337C28.6667 54.4382 27.7712 55.3337 26.6667 55.3337H16C14.8954 55.3337 14 54.4382 14 53.3337V10.667Z" fill="#ffffff"/>
<path d="M35.3333 10.667C35.3333 9.56242 36.2287 8.66699 37.3333 8.66699H48C49.1046 8.66699 50 9.56242 50 10.667V53.3337C50 54.4382 49.1046 55.3337 48 55.3337H37.3333C36.2287 55.3337 35.3333 54.4382 35.3333 53.3337V10.667Z" fill="#ffffff"/>
</svg>
