<svg width="164" height="48" viewBox="0 0 164 48" fill="none" xmlns="http://www.w3.org/2000/svg">
<rect width="48" height="48" rx="24" fill="#EB0028"/>
<path d="M11.2275 21.1684H8L8 18.2148H18.0306V21.1684H14.8025V29.7855H11.2275V21.1684ZM18.5857 18.2148H28.3388V21.1684H22.161V22.5932H28.3388V25.3725H22.161V26.8319H28.3388V29.7855H18.5857V18.2148ZM28.9284 18.2148H34.7941C38.6469 18.2148 40 21.0642 40 23.983C40 27.5271 38.1254 29.7855 34.0998 29.7855H28.9284V18.2148ZM32.5037 26.8319H33.8914C36.1126 26.8319 36.4257 25.0254 36.4257 23.9483C36.4257 23.2183 36.1827 21.2032 33.6138 21.2032H32.4681L32.5037 26.8319Z" fill="white"/>
<path d="M64.2393 21.174C64.1882 20.6584 63.9688 20.2578 63.581 19.9723C63.1932 19.6868 62.6669 19.544 62.0021 19.544C61.5504 19.544 61.169 19.608 60.858 19.7358C60.5469 19.8594 60.3082 20.032 60.142 20.2536C59.9801 20.4751 59.8991 20.7266 59.8991 21.0078C59.8906 21.2422 59.9396 21.4467 60.0462 21.6214C60.157 21.7962 60.3082 21.9474 60.5 22.0753C60.6918 22.1989 60.9134 22.3075 61.1648 22.4013C61.4162 22.4908 61.6847 22.5675 61.9702 22.6314L63.1463 22.9126C63.7173 23.0405 64.2415 23.2109 64.7188 23.424C65.196 23.6371 65.6094 23.8991 65.9588 24.2102C66.3082 24.5213 66.5788 24.8878 66.7706 25.3097C66.9666 25.7315 67.0668 26.2152 67.071 26.7607C67.0668 27.5618 66.8622 28.2564 66.4574 28.8445C66.0568 29.4283 65.4773 29.8821 64.7188 30.206C63.9645 30.5256 63.0547 30.6854 61.9893 30.6854C60.9325 30.6854 60.0121 30.5234 59.228 30.1996C58.4482 29.8757 57.8388 29.3963 57.3999 28.7614C56.9652 28.1222 56.7372 27.3317 56.7159 26.3899H59.3942C59.424 26.8288 59.5497 27.1953 59.7713 27.4893C59.9972 27.7791 60.2976 27.9986 60.6726 28.1477C61.0518 28.2926 61.4801 28.3651 61.9574 28.3651C62.4261 28.3651 62.8331 28.2969 63.1783 28.1605C63.5277 28.0241 63.7983 27.8345 63.9901 27.5916C64.1818 27.3487 64.2777 27.0696 64.2777 26.7543C64.2777 26.4602 64.1903 26.2131 64.0156 26.0128C63.8452 25.8125 63.5938 25.642 63.2614 25.5014C62.9332 25.3608 62.5305 25.233 62.0533 25.1179L60.6278 24.7599C59.5241 24.4915 58.6527 24.0717 58.0135 23.5007C57.3743 22.9297 57.0568 22.1605 57.0611 21.1932C57.0568 20.4006 57.2678 19.7081 57.6939 19.1158C58.1243 18.5234 58.7145 18.0611 59.4645 17.7287C60.2145 17.3963 61.0668 17.2301 62.0213 17.2301C62.9929 17.2301 63.8409 17.3963 64.5653 17.7287C65.294 18.0611 65.8608 18.5234 66.2656 19.1158C66.6705 19.7081 66.8793 20.3942 66.892 21.174H64.2393ZM74.1039 20.6818V22.7273H68.1912V20.6818H74.1039ZM69.5336 18.3295H72.2566V27.483C72.2566 27.7344 72.2949 27.9304 72.3716 28.071C72.4483 28.2074 72.5549 28.3033 72.6912 28.3587C72.8319 28.4141 72.9938 28.4418 73.177 28.4418C73.3049 28.4418 73.4327 28.4311 73.5605 28.4098C73.6884 28.3842 73.7864 28.3651 73.8546 28.3523L74.2828 30.3786C74.1465 30.4212 73.9547 30.4702 73.7076 30.5256C73.4604 30.5852 73.16 30.6214 72.8063 30.6342C72.15 30.6598 71.5748 30.5724 71.0804 30.3722C70.5904 30.1719 70.209 29.8608 69.9363 29.4389C69.6635 29.017 69.5293 28.4844 69.5336 27.8409V18.3295ZM78.6774 30.6854C78.051 30.6854 77.4927 30.5767 77.0027 30.3594C76.5126 30.1378 76.1248 29.8118 75.8393 29.3814C75.5581 28.9467 75.4174 28.4055 75.4174 27.7578C75.4174 27.2124 75.5176 26.7543 75.7179 26.3835C75.9181 26.0128 76.1909 25.7145 76.536 25.4886C76.8812 25.2628 77.2733 25.0923 77.7122 24.9773C78.1554 24.8622 78.6199 24.7812 79.1056 24.7344C79.6767 24.6747 80.1369 24.6193 80.4863 24.5682C80.8358 24.5128 81.0893 24.4318 81.247 24.3253C81.4047 24.2187 81.4835 24.0611 81.4835 23.8523V23.8139C81.4835 23.4091 81.3556 23.0959 81.1 22.8743C80.8485 22.6527 80.4906 22.5419 80.0261 22.5419C79.536 22.5419 79.1461 22.6506 78.8564 22.8679C78.5666 23.081 78.3748 23.3494 78.2811 23.6733L75.7626 23.4688C75.8904 22.8722 76.1419 22.3565 76.5169 21.9219C76.8919 21.483 77.3755 21.1463 77.9679 20.9119C78.5645 20.6733 79.2548 20.554 80.0389 20.554C80.5843 20.554 81.1064 20.6179 81.6049 20.7457C82.1078 20.8736 82.5531 21.0717 82.9409 21.3402C83.3329 21.6087 83.6419 21.9538 83.8677 22.3757C84.0936 22.7933 84.2065 23.294 84.2065 23.8778V30.5H81.6241V29.1385H81.5474C81.3897 29.4453 81.1788 29.7159 80.9146 29.9503C80.6504 30.1804 80.3329 30.3615 79.9622 30.4936C79.5914 30.6214 79.1632 30.6854 78.6774 30.6854ZM79.4572 28.8061C79.8578 28.8061 80.2115 28.7273 80.5183 28.5696C80.8251 28.4077 81.0659 28.1903 81.2406 27.9176C81.4153 27.6449 81.5027 27.3359 81.5027 26.9908V25.9489C81.4174 26.0043 81.3002 26.0554 81.1511 26.1023C81.0062 26.1449 80.8422 26.1854 80.6589 26.2237C80.4757 26.2578 80.2924 26.2898 80.1092 26.3196C79.926 26.3452 79.7598 26.3686 79.6106 26.3899C79.291 26.4368 79.0119 26.5114 78.7733 26.6136C78.5346 26.7159 78.3493 26.8544 78.2172 27.0291C78.085 27.1996 78.019 27.4126 78.019 27.6683C78.019 28.0391 78.1532 28.3224 78.4217 28.5185C78.6944 28.7102 79.0396 28.8061 79.4572 28.8061ZM90.7424 34.3864C89.8603 34.3864 89.1039 34.2649 88.4732 34.022C87.8468 33.7834 87.3482 33.4574 86.9775 33.044C86.6067 32.6307 86.3659 32.1662 86.2551 31.6506L88.7736 31.3118C88.8503 31.5078 88.9718 31.6911 89.138 31.8615C89.3042 32.032 89.5236 32.1683 89.7963 32.2706C90.0733 32.3771 90.41 32.4304 90.8063 32.4304C91.3986 32.4304 91.8865 32.2855 92.2701 31.9957C92.6578 31.7102 92.8517 31.2308 92.8517 30.5575V28.7614H92.7367C92.6174 29.0341 92.4384 29.2919 92.1998 29.5348C91.9611 29.7777 91.6543 29.9759 91.2793 30.1293C90.9043 30.2827 90.4569 30.3594 89.937 30.3594C89.1998 30.3594 88.5286 30.1889 87.9235 29.848C87.3226 29.5028 86.8432 28.9766 86.4853 28.2692C86.1316 27.5575 85.9547 26.6584 85.9547 25.5717C85.9547 24.4595 86.1358 23.5305 86.498 22.7848C86.8603 22.0391 87.3418 21.4808 87.9426 21.1101C88.5478 20.7393 89.2104 20.554 89.9306 20.554C90.4803 20.554 90.9405 20.6477 91.3113 20.8352C91.682 21.0185 91.9803 21.2486 92.2061 21.5256C92.4363 21.7983 92.6131 22.0668 92.7367 22.331H92.839V20.6818H95.5428V30.5959C95.5428 31.4311 95.3382 32.13 94.9292 32.6925C94.5201 33.255 93.9533 33.6768 93.2289 33.9581C92.5087 34.2436 91.6799 34.3864 90.7424 34.3864ZM90.7999 28.3139C91.2388 28.3139 91.6096 28.2053 91.9121 27.9879C92.2189 27.7663 92.4533 27.451 92.6152 27.0419C92.7814 26.6286 92.8645 26.1342 92.8645 25.5589C92.8645 24.9837 92.7836 24.4851 92.6216 24.0632C92.4597 23.6371 92.2253 23.3068 91.9185 23.0724C91.6117 22.8381 91.2388 22.7209 90.7999 22.7209C90.3525 22.7209 89.9753 22.8423 89.6685 23.0852C89.3617 23.3239 89.1294 23.6562 88.9718 24.0824C88.8141 24.5085 88.7353 25.0007 88.7353 25.5589C88.7353 26.1257 88.8141 26.6158 88.9718 27.0291C89.1337 27.4382 89.3659 27.7557 89.6685 27.9815C89.9753 28.2031 90.3525 28.3139 90.7999 28.3139ZM102.184 30.6918C101.174 30.6918 100.305 30.4872 99.5762 30.0781C98.8517 29.6648 98.2935 29.081 97.9015 28.3267C97.5094 27.5682 97.3134 26.6712 97.3134 25.6357C97.3134 24.6257 97.5094 23.7393 97.9015 22.9766C98.2935 22.2138 98.8453 21.6193 99.557 21.1932C100.273 20.767 101.112 20.554 102.075 20.554C102.723 20.554 103.326 20.6584 103.884 20.8672C104.447 21.0717 104.937 21.3807 105.355 21.794C105.776 22.2074 106.105 22.7273 106.339 23.3537C106.573 23.9759 106.691 24.7045 106.691 25.5398V26.2876H98.4V24.6001H104.127C104.127 24.2081 104.042 23.8608 103.872 23.5582C103.701 23.2557 103.465 23.0192 103.162 22.8487C102.864 22.674 102.517 22.5866 102.12 22.5866C101.707 22.5866 101.34 22.6825 101.021 22.8743C100.705 23.0618 100.458 23.3153 100.279 23.6349C100.1 23.9503 100.009 24.3018 100.004 24.6896V26.294C100.004 26.7798 100.094 27.1996 100.273 27.5533C100.456 27.907 100.714 28.1797 101.046 28.3714C101.379 28.5632 101.773 28.6591 102.229 28.6591C102.531 28.6591 102.808 28.6165 103.06 28.5312C103.311 28.446 103.526 28.3182 103.705 28.1477C103.884 27.9773 104.021 27.7685 104.115 27.5213L106.633 27.6875C106.505 28.2926 106.243 28.821 105.847 29.2727C105.455 29.7202 104.948 30.0696 104.325 30.321C103.708 30.5682 102.994 30.6918 102.184 30.6918ZM112.186 19.6911V17.4091H122.938V19.6911H118.93V30.5H116.194V19.6911H112.186ZM124.657 30.5V20.6818H127.38V30.5H124.657ZM126.025 19.4162C125.62 19.4162 125.273 19.282 124.983 19.0135C124.697 18.7408 124.555 18.4148 124.555 18.0355C124.555 17.6605 124.697 17.3388 124.983 17.0703C125.273 16.7976 125.62 16.6612 126.025 16.6612C126.43 16.6612 126.775 16.7976 127.06 17.0703C127.35 17.3388 127.495 17.6605 127.495 18.0355C127.495 18.4148 127.35 18.7408 127.06 19.0135C126.775 19.282 126.43 19.4162 126.025 19.4162ZM129.561 30.5V20.6818H132.156V22.4141H132.271C132.476 21.8388 132.817 21.3849 133.294 21.0526C133.771 20.7202 134.343 20.554 135.007 20.554C135.681 20.554 136.254 20.7223 136.727 21.0589C137.2 21.3913 137.515 21.843 137.673 22.4141H137.775C137.975 21.8516 138.338 21.402 138.862 21.0653C139.39 20.7244 140.014 20.554 140.735 20.554C141.651 20.554 142.394 20.8459 142.965 21.4297C143.541 22.0092 143.828 22.8317 143.828 23.897V30.5H141.112V24.4339C141.112 23.8885 140.967 23.4794 140.677 23.2067C140.387 22.9339 140.025 22.7976 139.59 22.7976C139.096 22.7976 138.71 22.9553 138.433 23.2706C138.156 23.5817 138.018 23.9929 138.018 24.5043V30.5H135.378V24.3764C135.378 23.8949 135.24 23.5114 134.963 23.2259C134.69 22.9403 134.33 22.7976 133.882 22.7976C133.58 22.7976 133.307 22.8743 133.064 23.0277C132.825 23.1768 132.636 23.3878 132.495 23.6605C132.355 23.929 132.284 24.2443 132.284 24.6065V30.5H129.561ZM150.454 30.6918C149.444 30.6918 148.574 30.4872 147.846 30.0781C147.121 29.6648 146.563 29.081 146.171 28.3267C145.779 27.5682 145.583 26.6712 145.583 25.6357C145.583 24.6257 145.779 23.7393 146.171 22.9766C146.563 22.2138 147.115 21.6193 147.827 21.1932C148.542 20.767 149.382 20.554 150.345 20.554C150.993 20.554 151.596 20.6584 152.154 20.8672C152.716 21.0717 153.206 21.3807 153.624 21.794C154.046 22.2074 154.374 22.7273 154.608 23.3537C154.843 23.9759 154.96 24.7045 154.96 25.5398V26.2876H146.67V24.6001H152.397C152.397 24.2081 152.312 23.8608 152.141 23.5582C151.971 23.2557 151.734 23.0192 151.432 22.8487C151.133 22.674 150.786 22.5866 150.39 22.5866C149.976 22.5866 149.61 22.6825 149.29 22.8743C148.975 23.0618 148.728 23.3153 148.549 23.6349C148.37 23.9503 148.278 24.3018 148.274 24.6896V26.294C148.274 26.7798 148.363 27.1996 148.542 27.5533C148.726 27.907 148.983 28.1797 149.316 28.3714C149.648 28.5632 150.042 28.6591 150.498 28.6591C150.801 28.6591 151.078 28.6165 151.329 28.5312C151.581 28.446 151.796 28.3182 151.975 28.1477C152.154 27.9773 152.29 27.7685 152.384 27.5213L154.903 27.6875C154.775 28.2926 154.513 28.821 154.116 29.2727C153.724 29.7202 153.217 30.0696 152.595 30.321C151.977 30.5682 151.263 30.6918 150.454 30.6918ZM156.737 30.5V20.6818H159.377V22.3949H159.479C159.658 21.7855 159.959 21.3253 160.381 21.0142C160.802 20.6989 161.288 20.5412 161.838 20.5412C161.974 20.5412 162.121 20.5497 162.279 20.5668C162.437 20.5838 162.575 20.6072 162.694 20.6371V23.0533C162.567 23.0149 162.39 22.9808 162.164 22.951C161.938 22.9212 161.731 22.9062 161.544 22.9062C161.143 22.9062 160.785 22.9936 160.47 23.1683C160.159 23.3388 159.912 23.5774 159.729 23.8842C159.55 24.1911 159.46 24.5447 159.46 24.9453V30.5H156.737Z" fill="white"/>
</svg>
