<svg width="64" height="64" viewBox="0 0 64 64" fill="none" xmlns="http://www.w3.org/2000/svg">
<path fill-rule="evenodd" clip-rule="evenodd" d="M25.4142 38.7477C24.6332 39.5288 23.3668 39.5288 22.5858 38.7477L9.25246 25.4144C8.47141 24.6333 8.47141 23.367 9.25246 22.5859L22.5858 9.25261C23.3668 8.47157 24.6332 8.47157 25.4142 9.25261C26.1953 10.0337 26.1953 11.3 25.4142 12.081L13.4951 24.0002L25.4142 35.9193C26.1953 36.7003 26.1953 37.9667 25.4142 38.7477Z" fill="#ffffff"/>
<path fill-rule="evenodd" clip-rule="evenodd" d="M53.3333 55.3335C52.2287 55.3335 51.3333 54.4381 51.3333 53.3335L51.3333 34.6668C51.3333 32.3683 50.4202 30.1639 48.7949 28.5386C47.1696 26.9132 44.9652 26.0002 42.6666 26.0002L10.6667 26.0002C9.56208 26.0002 8.66665 25.1047 8.66665 24.0002C8.66665 22.8956 9.56208 22.0002 10.6667 22.0002L42.6666 22.0002C46.0261 22.0002 49.2479 23.3347 51.6233 25.7101C53.9988 28.0856 55.3333 31.3074 55.3333 34.6668L55.3333 53.3335C55.3333 54.4381 54.4379 55.3335 53.3333 55.3335Z" fill="#ffffff"/>
</svg>
